<svg width="351" height="174" viewBox="0 0 351 174" fill="none" xmlns="http://www.w3.org/2000/svg">
<path fill-rule="evenodd" clip-rule="evenodd" d="M92.0092 148.27C85.7068 145.223 79.2358 142.095 72.4996 139C46.2352 126.933 18.2072 106.299 4.15364 95.3414C-0.706152 91.5522 -0.751226 84.4025 4.07131 80.5659C18.0211 69.4683 46.6498 47.9456 79.9996 29.9359C110.424 13.5061 144.777 0 175.5 0C210.689 0 250.643 17.7197 284 37.2563C311.964 53.6349 335.292 71.2906 347.288 80.8528C351.979 84.5916 352.061 91.5203 347.446 95.3517C335.393 105.358 311.753 123.765 284 139C244.696 160.575 212.5 174 175.5 174C145.236 174 120.324 161.958 92.0092 148.27ZM175.5 149C210.017 149 238 121.018 238 86.5C238 51.9822 210.017 24 175.5 24C140.982 24 113 51.9822 113 86.5C113 121.018 140.982 149 175.5 149Z" fill="#05BED7"/>
<circle cx="175.5" cy="86.5" r="22.5" fill="#FFC452"/>
<rect x="173" y="40" width="4" height="17" rx="2" fill="#FFC452"/>
<rect x="173" y="116" width="4" height="17" rx="2" fill="#FFC452"/>
<rect x="221.5" y="84.5066" width="4" height="17" rx="2" transform="rotate(90.0082 221.5 84.5066)" fill="#FFC452"/>
<rect x="145.5" y="84.4958" width="4" height="17" rx="2" transform="rotate(90.0082 145.5 84.4958)" fill="#FFC452"/>
<rect x="209.283" y="117.979" width="4" height="17" rx="2" transform="rotate(135.02 209.283 117.979)" fill="#FFC452"/>
<rect x="155.562" y="64.2197" width="4" height="17" rx="2" transform="rotate(135.02 155.562 64.2197)" fill="#FFC452"/>
<rect x="206.478" y="52.2168" width="4" height="17" rx="2" transform="rotate(45.0201 206.478 52.2168)" fill="#FFC452"/>
<rect x="152.719" y="105.938" width="4" height="17" rx="2" transform="rotate(45.0201 152.719 105.938)" fill="#FFC452"/>
</svg>
