<?xml version="1.0" encoding="utf-8"?>
<svg version="1.1" xmlns="http://www.w3.org/2000/svg" xmlns:xlink="http://www.w3.org/1999/xlink" height="157.9653754139365" width="193.29344386628736">
  <defs>
    <path id="path-1" opacity="1" fill-rule="evenodd" d="M158.73887843659963,121.616864671749 L159.29344386628713,122.4653754139365 L76.29344386628713,122.4653754139365 L117.79344386628713,58.9653754139365 L147.35997218659963,104.20567082409275 C151.34379787019338,102.308270921749 174.80394191316213,89.92954777721775 168.29344386628713,64.31211613659275 C161.18644923738088,36.347608079952124 148.29344386628713,24.9653754139365 148.29344386628713,24.9653754139365 C148.29344386628713,24.9653754139365 170.59642238191213,31.249097337764624 180.79344386628713,64.31211613659275 C190.28422755769338,95.085126390499 162.61699122956838,118.51841496471775 158.73887843659963,121.616864671749Z"/>
    <path id="path-2" opacity="1" fill-rule="evenodd" d="M153.04951174504333,79.29823170749239 C156.09382326848083,76.30738698092989 155.87470705754333,74.37214528171114 155.87470705754333,74.37214528171114 C155.87470705754333,74.37214528171114 156.23475344426208,72.71125660983614 153.43317873723083,70.06168995944552 C142.87818606144958,60.079451189914266 114.48408205754333,33.965498553195516 82.91523440129333,33.965498553195516 C53.79334719426208,33.965498553195516 29.717114284105833,54.36793385592989 17.800122096605833,66.63209401217989 C13.364636256762083,71.19679127780489 13.384960963793333,74.37214528171114 13.384960963793333,74.37214528171114 C13.384960963793333,74.37214528171114 12.272656276293333,77.57020436374239 17.800122096605833,82.09901295749239 C30.383465602465208,92.40888844577364 55.29334719426208,111.34748707858614 82.91523440129333,111.34748707858614 C114.12434084660583,111.34748707858614 142.20093996769958,89.95637379733614 153.04951174504333,79.29823170749239 L153.04951174504333,79.29823170749239ZM109.29334719426208,71.84745656100802 C109.29334719426208,58.601484881320516 98.53931887394958,47.847456561008016 85.29334719426208,47.847456561008016 C72.04737551457458,47.847456561008016 61.29334719426208,58.601484881320516 61.29334719426208,71.84745656100802 C61.29334719426208,85.09339772311739 72.04737551457458,95.84742604342989 85.29334719426208,95.84742604342989 C98.53931887394958,95.84742604342989 109.29334719426208,85.09339772311739 109.29334719426208,71.84745656100802 L109.29334719426208,71.84745656100802Z"/>
    <ellipse id="ellipse-3" opacity="1" rx="8.603316998596938" ry="8.267263051666305" cx="85.10339486207795" cy="72.76716456893541"/>
    <path id="path-4" opacity="1" fill-rule="evenodd" d="M85.10339486207806,54.49990151726922 C85.65530988657206,54.49990151726922 86.10339486207806,54.94798649277522 86.10339486207806,55.49990151726922 L86.10339486207806,60.49990151726922 C86.10339486207806,61.05181654176322 85.65530988657206,61.49990151726922 85.10339486207806,61.49990151726922 C84.55147983758407,61.49990151726922 84.10339486207806,61.05181654176322 84.10339486207806,60.49990151726922 L84.10339486207806,55.49990151726922 C84.10339486207806,54.94798649277522 84.55147983758407,54.49990151726922 85.10339486207806,54.49990151726922 L85.10339486207806,54.49990151726922Z"/>
    <path id="path-5" opacity="1" fill-rule="evenodd" d="M85.10339486207806,82.49990151726922 C85.65530988657206,82.49990151726922 86.10339486207806,82.94798649277523 86.10339486207806,83.49990151726922 L86.10339486207806,88.49990151726922 C86.10339486207806,89.05181654176322 85.65530988657206,89.49990151726922 85.10339486207806,89.49990151726922 C84.55147983758407,89.49990151726922 84.10339486207806,89.05181654176322 84.10339486207806,88.49990151726922 L84.10339486207806,83.49990151726922 C84.10339486207806,82.94798649277523 84.55147983758407,82.49990151726922 85.10339486207806,82.49990151726922 L85.10339486207806,82.49990151726922Z"/>
    <path id="path-6" opacity="1" fill-rule="evenodd" d="M96.68205837882044,58.18188203260877 C97.23397340331444,58.18188203260877 97.68205837882044,58.62996700811477 97.68205837882044,59.18188203260877 L97.68205837882044,64.18188203260877 C97.68205837882044,64.73379705710276 97.23397340331444,65.18188203260877 96.68205837882044,65.18188203260877 C96.13014335432645,65.18188203260877 95.68205837882044,64.73379705710276 95.68205837882044,64.18188203260877 L95.68205837882044,59.18188203260877 C95.68205837882044,58.62996700811477 96.13014335432645,58.18188203260877 96.68205837882044,58.18188203260877 L96.68205837882044,58.18188203260877Z"/>
    <path id="path-7" opacity="1" fill-rule="evenodd" d="M73.68205837882044,79.18188203260877 C74.23397340331444,79.18188203260877 74.68205837882044,79.62996700811478 74.68205837882044,80.18188203260877 L74.68205837882044,85.18188203260877 C74.68205837882044,85.73379705710276 74.23397340331444,86.18188203260877 73.68205837882044,86.18188203260877 C73.13014335432645,86.18188203260877 72.68205837882044,85.73379705710276 72.68205837882044,85.18188203260877 L72.68205837882044,80.18188203260877 C72.68205837882044,79.62996700811478 73.13014335432645,79.18188203260877 73.68205837882044,79.18188203260877 L73.68205837882044,79.18188203260877Z"/>
    <path id="path-8" opacity="1" fill-rule="evenodd" d="M70.00007786348112,69.26716456893553 C70.55199288797512,69.26716456893553 71.00007786348112,69.71524954444153 71.00007786348112,70.26716456893553 L71.00007786348112,75.26716456893553 C71.00007786348112,75.81907959342952 70.55199288797512,76.26716456893553 70.00007786348112,76.26716456893553 C69.44816283898713,76.26716456893553 69.00007786348112,75.81907959342952 69.00007786348112,75.26716456893553 L69.00007786348112,70.26716456893553 C69.00007786348112,69.71524954444153 69.44816283898713,69.26716456893553 70.00007786348112,69.26716456893553 L70.00007786348112,69.26716456893553Z"/>
    <path id="path-9" opacity="1" fill-rule="evenodd" d="M100.00007786348112,69.26716456893553 C100.55199288797512,69.26716456893553 101.00007786348112,69.71524954444153 101.00007786348112,70.26716456893553 L101.00007786348112,75.26716456893553 C101.00007786348112,75.81907959342952 100.55199288797512,76.26716456893553 100.00007786348112,76.26716456893553 C99.44816283898713,76.26716456893553 99.00007786348112,75.81907959342952 99.00007786348112,75.26716456893553 L99.00007786348112,70.26716456893553 C99.00007786348112,69.71524954444153 99.44816283898713,69.26716456893553 100.00007786348112,69.26716456893553 L100.00007786348112,69.26716456893553Z"/>
    <path id="path-10" opacity="1" fill-rule="evenodd" d="M73.68205837882044,58.18188203260854 C74.23397340331444,58.18188203260854 74.68205837882044,58.62996700811454 74.68205837882044,59.18188203260854 L74.68205837882044,64.18188203260854 C74.68205837882044,64.73379705710254 74.23397340331444,65.18188203260854 73.68205837882044,65.18188203260854 C73.13014335432645,65.18188203260854 72.68205837882044,64.73379705710254 72.68205837882044,64.18188203260854 L72.68205837882044,59.18188203260854 C72.68205837882044,58.62996700811454 73.13014335432645,58.18188203260854 73.68205837882044,58.18188203260854 L73.68205837882044,58.18188203260854Z"/>
    <path id="path-11" opacity="1" fill-rule="evenodd" d="M96.68205837882044,79.18188203260854 C97.23397340331444,79.18188203260854 97.68205837882044,79.62996700811455 97.68205837882044,80.18188203260854 L97.68205837882044,85.18188203260854 C97.68205837882044,85.73379705710254 97.23397340331444,86.18188203260854 96.68205837882044,86.18188203260854 C96.13014335432645,86.18188203260854 95.68205837882044,85.73379705710254 95.68205837882044,85.18188203260854 L95.68205837882044,80.18188203260854 C95.68205837882044,79.62996700811455 96.13014335432645,79.18188203260854 96.68205837882044,79.18188203260854 L96.68205837882044,79.18188203260854Z"/>
  </defs>
  <g opacity="1">
    <g>
      <use xlink:href="#path-1" fill="rgb(28,196,120)" fill-opacity="1"/>
    </g>
    <g opacity="1">
      <g transform="translate(84.59156496769958, 72.65649281589083) rotate(-30.00001072692501) translate(-84.59156496769958, -72.65649281589083)">
        <use xlink:href="#path-2" fill="rgb(28,196,186)" fill-opacity="1"/>
        <use xlink:href="#path-2" fill-opacity="0" stroke="rgb(255,255,255)" stroke-opacity="1" stroke-width="7" stroke-linecap="butt" stroke-linejoin="miter"/>
      </g>
    </g>
    <g opacity="1">
      <use xlink:href="#ellipse-3" fill="rgb(250,153,23)" fill-opacity="1"/>
    </g>
    <g opacity="1">
      <use xlink:href="#path-4" fill="rgb(250,153,23)" fill-opacity="1"/>
    </g>
    <g opacity="1">
      <use xlink:href="#path-5" fill="rgb(250,153,23)" fill-opacity="1"/>
    </g>
    <g transform="translate(96.68205837882044, 61.68188203260877) rotate(45.00001609038752) translate(-96.68205837882044, -61.68188203260877)" opacity="1">
      <use xlink:href="#path-6" fill="rgb(250,153,23)" fill-opacity="1"/>
    </g>
    <g transform="translate(73.68205837882044, 82.68188203260877) rotate(45.00001609038752) translate(-73.68205837882044, -82.68188203260877)" opacity="1">
      <use xlink:href="#path-7" fill="rgb(250,153,23)" fill-opacity="1"/>
    </g>
    <g transform="translate(70.00007786348112, 72.76716456893553) rotate(90.00003218077504) translate(-70.00007786348112, -72.76716456893553)" opacity="1">
      <use xlink:href="#path-8" fill="rgb(250,153,23)" fill-opacity="1"/>
    </g>
    <g transform="translate(100.00007786348112, 72.76716456893553) rotate(90.00003218077504) translate(-100.00007786348112, -72.76716456893553)" opacity="1">
      <use xlink:href="#path-9" fill="rgb(250,153,23)" fill-opacity="1"/>
    </g>
    <g transform="translate(73.68205837882044, 61.68188203260854) rotate(135.00004827116254) translate(-73.68205837882044, -61.68188203260854)" opacity="1">
      <use xlink:href="#path-10" fill="rgb(250,153,23)" fill-opacity="1"/>
    </g>
    <g transform="translate(96.68205837882044, 82.68188203260854) rotate(135.00004827116254) translate(-96.68205837882044, -82.68188203260854)" opacity="1">
      <use xlink:href="#path-11" fill="rgb(250,153,23)" fill-opacity="1"/>
    </g>
  </g>
</svg>