<svg width="469" height="600" viewBox="0 0 469 600" fill="none" xmlns="http://www.w3.org/2000/svg">
<g clip-path="url(#clip0)">
<path fill-rule="evenodd" clip-rule="evenodd" d="M301.065 361.34C331.831 340.151 352 304.681 352 264.5C352 199.607 299.393 147 234.5 147C169.607 147 117 199.607 117 264.5C117 302.163 134.72 335.688 162.279 357.191L173.5 466.139H295L301.065 361.34Z" fill="#FFC452"/>
<path d="M234.38 131C162.123 131 103.341 190.728 103.341 264.146C103.341 293.351 120.317 319.636 135.292 342.818C144.123 356.478 152.457 369.381 154.328 379.027C159.589 406.252 162.603 470.833 162.627 471.483C162.839 475.999 166.548 479.551 171.076 479.551H297.687C300.016 479.551 302.239 478.599 303.834 476.909C305.43 475.212 306.258 472.942 306.127 470.626C304.555 442.319 305.643 392.137 315.254 377.927C316.92 375.468 318.836 372.749 320.904 369.771C337.56 346.012 365.418 306.23 365.418 264.139C365.406 190.734 306.636 131 234.38 131ZM307.062 360.092C304.916 363.139 302.971 365.942 301.257 368.459C288.005 388.047 288.183 440.818 288.868 462.652H179.114C178.121 444.117 175.32 398.627 170.919 375.83C168.425 362.956 159.653 349.379 149.499 333.647C135.783 312.421 120.252 288.374 120.252 264.151C120.252 200.055 171.451 147.916 234.374 147.916C297.298 147.916 348.497 200.055 348.497 264.151C348.502 300.911 322.554 337.956 307.062 360.092ZM168.864 492.118H299.897V557.639C299.897 569.957 291.918 580.301 280.871 584.084C278.819 593.057 270.846 599.759 261.259 599.759H207.494C197.907 599.759 189.928 593.057 187.882 584.084C176.844 580.301 168.858 569.957 168.858 557.639V492.118H168.864ZM215.985 172.304C216.904 175.516 215.054 178.871 211.833 179.784C152.513 196.786 151.913 260.525 151.913 263.226C151.913 266.566 149.221 269.285 145.872 269.29H145.86C142.527 269.29 139.819 266.603 139.807 263.267C139.807 262.517 140.28 187.701 208.505 168.151C211.694 167.232 215.066 169.083 215.985 172.304ZM319.119 294.687C317.925 296.014 316.276 296.685 314.627 296.685C313.185 296.685 311.725 296.17 310.572 295.13C308.09 292.89 307.888 289.066 310.134 286.577C329.284 265.319 313.302 239.335 313.137 239.075C311.352 236.244 312.202 232.508 315.029 230.729C317.854 228.944 321.59 229.797 323.375 232.623C330.728 244.3 339.311 272.294 319.119 294.687Z" fill="white"/>
<rect x="378" y="199.811" width="98" height="16" rx="8" transform="rotate(-32.608 378 199.811)" fill="#FFC452"/>
<rect x="74.2969" y="211.61" width="98" height="16" rx="8" transform="rotate(-135 74.2969 211.61)" fill="#FFC452"/>
</g>
<rect x="226" y="98" width="98" height="16" rx="8" transform="rotate(-90 226 98)" fill="#FFC452"/>
<defs>
<clipPath id="clip0">
<rect width="468.759" height="468.759" fill="white" transform="translate(0 131)"/>
</clipPath>
</defs>
</svg>
