<?xml version="1.0" encoding="utf-8"?>
<svg version="1.1" xmlns="http://www.w3.org/2000/svg" xmlns:xlink="http://www.w3.org/1999/xlink" height="512" width="477.3554697136743">
  <defs>
    <path id="path-1" opacity="1" fill-rule="evenodd" d="M347.2734384636743,42.3515625 C375.6367197136743,68.40234375 393.6015634636743,103.41796875 398.1914072136743,141.38671875 C445.7421884636743,159.55078125 477.3554697136743,205.19921875 477.3554697136743,256.46875 C477.3554697136743,324.390625 422.0976572136743,379.64453125 354.1757822136743,379.64453125 C340.0546884636743,398.83203125 321.7851572136743,414.19921875 300.6093759636743,424.50390625 L309.4296884636743,485.953125 C310.3671884636743,492.50390625 308.4218759636743,499.12890625 304.0859384636743,504.1328125 C299.7539072136743,509.1328125 293.4687509636743,512 286.8515634636743,512 L190.14453221367432,512 C183.52734471367432,512 177.24609471367432,509.1328125 172.91015721367432,504.1328125 C168.57421971367432,499.12890625 166.62890721367432,492.50390625 167.57031346367432,485.953125 L176.38671971367432,424.51953125 C155.21093846367432,414.21484375 136.93359471367432,398.81640625 123.13671971367432,379.64453125 C60.300782213674324,379.64453125 7.7031240563256915,332.8828125 0.47656251000000793,270.8671875 C1.0000007932831068e-8,266.75390625 2.9453115563256915,263.03125 7.0585928063256915,262.55078125 C11.179686556325692,262.07421875 14.898436556325692,265.01953125 15.378907213674324,269.1328125 C21.722657213674324,323.5859375 67.91406346367432,364.64453125 122.82421971367432,364.64453125 C123.98046971367432,364.64453125 125.21875096367432,364.62109375 126.72265721367432,364.56640625 C129.30078221367432,364.46875 131.75000096367432,365.71875 133.19921971367432,367.859375 C144.85546971367432,385.07421875 160.44921971367432,399.1015625 178.64062596367432,408.82421875 L181.41015721367432,389.51953125 L121.84375096367432,309.9921875 C114.57421971367432,300.28515625 115.55859471367432,286.49609375 124.13671971367432,277.91796875 C132.71093846367432,269.33984375 146.50000096367432,268.35546875 156.21093846367432,275.62890625 L193.72265721367432,303.7265625 L202.41406346367432,243.15625 C204.97265721367432,225.328125 220.48828221367432,211.8828125 238.50000096367432,211.8828125 C256.5117197136743,211.8828125 272.0273447136743,225.328125 274.5859384636743,243.15625 L277.9648447136743,266.70703125 L320.7929697136743,234.62890625 C330.5000009636743,227.359375 344.2890634636743,228.34375 352.8671884636743,236.91796875 C361.4414072136743,245.49609375 362.4257822136743,259.28515625 355.1562509636743,268.9921875 L334.3789072136743,296.734375 C332.9062509636743,298.69921875 330.6523447136743,299.73828125 328.3710947136743,299.73828125 C326.8046884636743,299.73828125 325.2265634636743,299.25 323.8789072136743,298.23828125 C320.5625009636743,295.7578125 319.8906259636743,291.0546875 322.3710947136743,287.73828125 L343.1484384636743,260 C345.9765634636743,256.22265625 345.5937509636743,250.859375 342.2578134636743,247.5234375 C338.9218759636743,244.1875 333.5585947136743,243.8046875 329.7851572136743,246.6328125 L280.3945322136743,283.62890625 L287.6367197136743,334.11328125 L305.5703134636743,310.171875 C308.0546884636743,306.85546875 312.7539072136743,306.1796875 316.0703134636743,308.6640625 C319.3867197136743,311.14453125 320.0585947136743,315.84765625 317.5781259636743,319.16015625 L290.6523447136743,355.109375 L298.3593759636743,408.81640625 C316.5507822136743,399.09375 332.1328134636743,385.08984375 343.8007822136743,367.859375 C345.2500009636743,365.71875 347.6718759636743,364.46484375 350.2734384636743,364.56640625 C351.7812509636743,364.62109375 353.0195322136743,364.64453125 354.1757822136743,364.64453125 C413.8281259636743,364.64453125 462.3554697136743,316.1171875 462.3554697136743,256.46875 C462.3554697136743,210.01171875 432.8046884636743,168.81640625 388.8281259636743,153.95703125 C386.0156259636743,153.0078125 384.0273447136743,150.484375 383.7578134636743,147.52734375 C376.9101572136743,71.9765625 314.4609384636743,15 238.50000096367432,15 C162.53906346367432,15 100.08984471367432,71.9765625 93.24218846367432,147.52734375 C92.97265721367432,150.484375 90.98437596367432,153.0078125 88.17187596367432,153.95703125 C49.113282213674324,167.15625 20.582032213674324,202.078125 15.484375963674324,242.9296875 C14.968750963674324,247.0390625 11.226561556325692,249.953125 7.1132803063256915,249.44140625 C3.000000010000008,248.9296875 0.08593655632569153,245.1796875 0.5976562600000079,241.0703125 C6.2031240563256915,196.15234375 36.683594713674324,157.52734375 78.80859471367432,141.390625 C83.39453221367432,103.4140625 101.35937596367432,68.40234375 129.72656346367432,42.3515625 C159.46484471367432,15.0390625 198.09375096367432,0 238.50000096367432,0 C278.9062509636743,0 317.5351572136743,15.0390625 347.2734384636743,42.3515625 L347.2734384636743,42.3515625ZM292.7539072136743,494.3046875 C291.2460947136743,496.04296875 289.1523447136743,497 286.8515634636743,497 L190.14453221367432,497 C187.84765721367432,497 185.75000096367432,496.04296875 184.24609471367432,494.3046875 C182.74218846367432,492.5703125 182.08984471367432,490.359375 182.41796971367432,488.08203125 L217.26171971367432,245.28515625 C218.76562596367432,234.79296875 227.89843846367432,226.87890625 238.50000096367432,226.87890625 C249.09765721367432,226.87890625 258.2304697136743,234.79296875 259.7343759636743,245.28515625 L275.3593759636743,354.1640625 L284.7656259636743,419.6953125 C284.7109384636743,420.6640625 284.8437509636743,421.65234375 285.1835947136743,422.61328125 L294.5781259636743,488.08203125 C294.9101572136743,490.359375 294.2578134636743,492.56640625 292.7539072136743,494.3046875 L292.7539072136743,494.3046875ZM133.85156346367432,301 C131.02343846367432,297.22265625 131.40625096367432,291.859375 134.74218846367432,288.5234375 C138.07812596367432,285.1875 143.44140721367432,284.8046875 147.21875096367432,287.6328125 L191.29296971367432,320.6484375 L184.42578221367432,368.51953125 L133.85156346367432,301 L133.85156346367432,301Z"/>
    <path id="path-2" opacity="1" fill-rule="evenodd" d="M215.30468726,143.52734375 C220.22656226,135.29296875 229.36718726,130.17578125 239.16015601,130.17578125 C248.95312476,130.17578125 258.09374976000004,135.29296875 263.01562476000004,143.52734375 C265.14062476000004,147.0859375 263.98046851000004,151.6875 260.42578101000004,153.8125 C256.87109351000004,155.9375 252.26562476000004,154.77734375 250.14062476000004,151.22265625 C247.91015601000004,147.4921875 243.70312476000004,145.171875 239.16015601000004,145.171875 C234.61718726000004,145.171875 230.41015601000004,147.4921875 228.17968726000004,151.22265625 C226.05859351000004,154.77734375 221.45312476000004,155.9375 217.89453101000004,153.8125 C214.33984351000004,151.69140625 213.17968726000004,147.0859375 215.30468726,143.52734375Z"/>
    <path id="path-3" opacity="1" fill-rule="evenodd" d="M302.18749976,126.66015625 C306.33203101,126.66015625 309.68749976,123.3046875 309.68749976,119.16015625 L309.68749976,107.80859375 C309.68749976,103.6640625 306.33203101,100.30859375 302.18749976,100.30859375 C298.04687476,100.30859375 294.68749976,103.6640625 294.68749976,107.80859375 L294.68749976,119.16015625 C294.68749976,123.3046875 298.04687476,126.66015625 302.18749976,126.66015625Z"/>
    <path id="path-4" opacity="1" fill-rule="evenodd" d="M174.80859351,126.66015625 C178.95312476,126.66015625 182.30859351,123.3046875 182.30859351,119.16015625 L182.30859351,107.80859375 C182.30859351,103.6640625 178.95312476,100.30859375 174.80859351,100.30859375 C170.66796851,100.30859375 167.30859351,103.6640625 167.30859351,107.80859375 L167.30859351,119.16015625 C167.30859351,123.3046875 170.66796851,126.66015625 174.80859351,126.66015625Z"/>
    <path id="path-5" opacity="1" fill-rule="evenodd" d="M289.01171851,140.62890625 C289.01171851,144.76953125 292.37109351,148.12890625 296.51171851,148.12890625 L307.86718726,148.12890625 C312.00781226,148.12890625 315.36718726,144.76953125 315.36718726,140.62890625 C315.36718726,136.484375 312.00781226,133.12890625 307.86718726,133.12890625 L296.51171851,133.12890625 C292.37109351,133.12890625 289.01171851,136.484375 289.01171851,140.62890625Z"/>
    <path id="path-6" opacity="1" fill-rule="evenodd" d="M161.63281226,140.62890625 C161.63281226,144.76953125 164.99218726,148.12890625 169.13281226,148.12890625 L180.48828101,148.12890625 C184.62890601,148.12890625 187.98828101,144.76953125 187.98828101,140.62890625 C187.98828101,136.484375 184.62890601,133.12890625 180.48828101,133.12890625 L169.13281226,133.12890625 C164.99218726,133.12890625 161.63281226,136.484375 161.63281226,140.62890625Z"/>
  </defs>
  <g opacity="1">
    <g opacity="1">
      <use xlink:href="#path-1" fill="rgb(0,0,0)" fill-opacity="1"/>
    </g>
    <g opacity="1">
      <use xlink:href="#path-2" fill="rgb(0,0,0)" fill-opacity="1"/>
    </g>
    <g opacity="1">
      <use xlink:href="#path-3" fill="rgb(0,0,0)" fill-opacity="1"/>
    </g>
    <g opacity="1">
      <use xlink:href="#path-4" fill="rgb(0,0,0)" fill-opacity="1"/>
    </g>
    <g opacity="1">
      <use xlink:href="#path-5" fill="rgb(0,0,0)" fill-opacity="1"/>
    </g>
    <g opacity="1">
      <use xlink:href="#path-6" fill="rgb(0,0,0)" fill-opacity="1"/>
    </g>
  </g>
</svg>